/* XPM */
static char * renametv_xpm[] = {
"32 32 566 2",
"  	c None",
". 	c #6F7374",
"+ 	c #B1B5B8",
"@ 	c #C5C9CA",
"# 	c #C0C5C6",
"$ 	c #202528",
"% 	c #23292D",
"& 	c #292F33",
"* 	c #22282C",
"= 	c #454A4D",
"- 	c #EEF2F3",
"; 	c #E5EAEB",
"> 	c #E1E4E5",
", 	c #92999D",
"' 	c #7F8588",
") 	c #6C7277",
"! 	c #7B8084",
"~ 	c #828688",
"{ 	c #6D7274",
"] 	c #32383C",
"^ 	c #272C30",
"/ 	c #2A2F34",
"( 	c #2E353A",
"_ 	c #333B40",
": 	c #363F44",
"< 	c #32393C",
"[ 	c #C3C7C9",
"} 	c #D5DADB",
"| 	c #677075",
"1 	c #606B70",
"2 	c #474D51",
"3 	c #10151A",
"4 	c #1F252A",
"5 	c #272E33",
"6 	c #2E363A",
"7 	c #353C41",
"8 	c #373F44",
"9 	c #374045",
"0 	c #384045",
"a 	c #3C454A",
"b 	c #232A2F",
"c 	c #969B9D",
"d 	c #A3A8AB",
"e 	c #BEC2C4",
"f 	c #BBBFC1",
"g 	c #A6ADAF",
"h 	c #A0A6A9",
"i 	c #9AA1A5",
"j 	c #9FA7AA",
"k 	c #8D9192",
"l 	c #21272C",
"m 	c #353E44",
"n 	c #353F44",
"o 	c #384146",
"p 	c #394247",
"q 	c #3A4247",
"r 	c #3F484D",
"s 	c #232C31",
"t 	c #767B7D",
"u 	c #C9CDCD",
"v 	c #E3E6E6",
"w 	c #909598",
"x 	c #5B6266",
"y 	c #767B7E",
"z 	c #84888B",
"A 	c #909496",
"B 	c #969A9D",
"C 	c #979C9E",
"D 	c #90989D",
"E 	c #666E74",
"F 	c #CFD3D4",
"G 	c #F1F5F5",
"H 	c #BDC1C2",
"I 	c #282F33",
"J 	c #313A3E",
"K 	c #2F373D",
"L 	c #3A4348",
"M 	c #3B4449",
"N 	c #3B454A",
"O 	c #3C464B",
"P 	c #3E474C",
"Q 	c #333D43",
"R 	c #464D50",
"S 	c #DEE2E3",
"T 	c #C1C5C8",
"U 	c #AAAFB2",
"V 	c #414B52",
"W 	c #505A60",
"X 	c #4C555B",
"Y 	c #475056",
"Z 	c #434B51",
"` 	c #545A5E",
" .	c #909699",
"..	c #525A5F",
"+.	c #A6ADB0",
"@.	c #727A7F",
"#.	c #90969A",
"$.	c #464C50",
"%.	c #282D31",
"&.	c #67686A",
"*.	c #7E8385",
"=.	c #4B5357",
"-.	c #3F4A4F",
";.	c #3D484C",
">.	c #3F494E",
",.	c #3D484D",
"'.	c #313A3D",
").	c #B1B6B7",
"!.	c #555F67",
"~.	c #A4AAAD",
"{.	c #626C72",
"].	c #596469",
"^.	c #5D676D",
"/.	c #5D676E",
"(.	c #5B666C",
"_.	c #596369",
":.	c #7B8287",
"<.	c #444C4F",
"[.	c #7A8285",
"}.	c #82898E",
"|.	c #798085",
"1.	c #242C31",
"2.	c #ACADAE",
"3.	c #EAEAEB",
"4.	c #646363",
"5.	c #1C2022",
"6.	c #434E53",
"7.	c #434D53",
"8.	c #404B50",
"9.	c #424D52",
"0.	c #313B40",
"a.	c #A0A7AB",
"b.	c #C8CCCE",
"c.	c #798186",
"d.	c #4D575E",
"e.	c #596269",
"f.	c #576269",
"g.	c #5C666C",
"h.	c #7F878B",
"i.	c #40464B",
"j.	c #454C51",
"k.	c #DDE1E2",
"l.	c #FFFFFF",
"m.	c #A9ACAD",
"n.	c #1A262A",
"o.	c #717678",
"p.	c #474646",
"q.	c #626465",
"r.	c #494849",
"s.	c #1A1F20",
"t.	c #465358",
"u.	c #455257",
"v.	c #444E53",
"w.	c #475257",
"x.	c #344045",
"y.	c #63696C",
"z.	c #F5F6F6",
"A.	c #8C9297",
"B.	c #465158",
"C.	c #566066",
"D.	c #565F67",
"E.	c #555F65",
"F.	c #586168",
"G.	c #80868B",
"H.	c #21272D",
"I.	c #BCC0C1",
"J.	c #8C9295",
"K.	c #989B9E",
"L.	c #444E51",
"M.	c #3E474B",
"N.	c #000000",
"O.	c #111212",
"P.	c #767879",
"Q.	c #484646",
"R.	c #1B1F21",
"S.	c #4A575D",
"T.	c #49565B",
"U.	c #495459",
"V.	c #3F4B50",
"W.	c #525A5E",
"X.	c #B5B8BA",
"Y.	c #697177",
"Z.	c #A1A6A9",
"`.	c #4F5A60",
" +	c #4E585F",
".+	c #515C62",
"++	c #515B62",
"@+	c #576167",
"#+	c #7C8388",
"$+	c #979C9F",
"%+	c #9A9EA0",
"&+	c #9FA2A5",
"*+	c #A1A5A7",
"=+	c #808487",
"-+	c #5F6669",
";+	c #4F565B",
">+	c #808588",
",+	c #656C6E",
"'+	c #2D3B41",
")+	c #0E0F0F",
"!+	c #76787A",
"~+	c #4B4A4A",
"{+	c #1C2122",
"]+	c #4D5B60",
"^+	c #4D595E",
"/+	c #4A575C",
"(+	c #3B464A",
"_+	c #B0B3B5",
":+	c #5F676D",
"<+	c #BABEC0",
"[+	c #576066",
"}+	c #4A545B",
"|+	c #505A62",
"1+	c #505961",
"2+	c #5D666C",
"3+	c #71787F",
"4+	c #696F73",
"5+	c #484F54",
"6+	c #51585D",
"7+	c #5F6569",
"8+	c #656B6E",
"9+	c #80888C",
"0+	c #9DA2A5",
"a+	c #AEB4B6",
"b+	c #B8BCBE",
"c+	c #969C9F",
"d+	c #717B80",
"e+	c #737F84",
"f+	c #4C5457",
"g+	c #0E0E0E",
"h+	c #777A7B",
"i+	c #484747",
"j+	c #1D2223",
"k+	c #515F64",
"l+	c #546268",
"m+	c #2F3D41",
"n+	c #9A9EA1",
"o+	c #FEFDFE",
"p+	c #6C7378",
"q+	c #394249",
"r+	c #444C53",
"s+	c #3D444B",
"t+	c #52585D",
"u+	c #495156",
"v+	c #474F55",
"w+	c #424B50",
"x+	c #40494F",
"y+	c #58636B",
"z+	c #626F76",
"A+	c #7D878D",
"B+	c #7C858B",
"C+	c #8B9397",
"D+	c #888F93",
"E+	c #8F959A",
"F+	c #A0A9AD",
"G+	c #727677",
"H+	c #0D0E0E",
"I+	c #77797B",
"J+	c #4B494A",
"K+	c #1D2324",
"L+	c #4C5A5E",
"M+	c #273338",
"N+	c #54595B",
"O+	c #C8C8CA",
"P+	c #797C80",
"Q+	c #919596",
"R+	c #192024",
"S+	c #31373B",
"T+	c #2B3036",
"U+	c #454A4E",
"V+	c #555A5F",
"W+	c #454D52",
"X+	c #454C52",
"Y+	c #434B50",
"Z+	c #5C676E",
"`+	c #647179",
" @	c #7E8A91",
".@	c #626E75",
"+@	c #727E85",
"@@	c #626F77",
"#@	c #647178",
"$@	c #6E7B81",
"%@	c #7C8A91",
"&@	c #535B60",
"*@	c #0F100F",
"=@	c #454444",
"-@	c #282B2D",
";@	c #6A7176",
">@	c #676C6F",
",@	c #9C9FA2",
"'@	c #262D31",
")@	c #A4A7A8",
"!@	c #262C30",
"~@	c #2C3136",
"{@	c #262C32",
"]@	c #43484C",
"^@	c #3F464B",
"/@	c #41494E",
"(@	c #3E4549",
"_@	c #3A4145",
":@	c #5D6870",
"<@	c #747F87",
"[@	c #778389",
"}@	c #818B93",
"|@	c #76838A",
"1@	c #68757C",
"2@	c #647177",
"3@	c #5B676E",
"4@	c #646F77",
"5@	c #3E4448",
"6@	c #10100F",
"7@	c #4B4B4B",
"8@	c #3C3E3E",
"9@	c #767B80",
"0@	c #7C8286",
"a@	c #929799",
"b@	c #C7CACB",
"c@	c #3C4044",
"d@	c #1D2228",
"e@	c #282E33",
"f@	c #3E4346",
"g@	c #3A4146",
"h@	c #363D42",
"i@	c #353C40",
"j@	c #3F464C",
"k@	c #57626A",
"l@	c #626C74",
"m@	c #858F95",
"n@	c #7A8389",
"o@	c #606A70",
"p@	c #495258",
"q@	c #495359",
"r@	c #556067",
"s@	c #3F464A",
"t@	c #3E3E3E",
"u@	c #101315",
"v@	c #4D565B",
"w@	c #6C7377",
"x@	c #BFC2C4",
"y@	c #5D6164",
"z@	c #101519",
"A@	c #2B3033",
"B@	c #393E40",
"C@	c #33393E",
"D@	c #31383B",
"E@	c #32393E",
"F@	c #4C565C",
"G@	c #5E666C",
"H@	c #485055",
"I@	c #575F65",
"J@	c #495259",
"K@	c #4A5359",
"L@	c #4A535A",
"M@	c #535D64",
"N@	c #3C4347",
"O@	c #6F7071",
"P@	c #4F4F4F",
"Q@	c #222628",
"R@	c #6E7274",
"S@	c #727678",
"T@	c #161A1D",
"U@	c #25292C",
"V@	c #373A3D",
"W@	c #3D4448",
"X@	c #2C3236",
"Y@	c #23282B",
"Z@	c #555E63",
"`@	c #545B62",
" #	c #4C545A",
".#	c #454E54",
"+#	c #475057",
"@#	c #475157",
"##	c #475156",
"$#	c #4F5960",
"%#	c #424A4F",
"&#	c #060606",
"*#	c #6B6C6D",
"=#	c #333537",
"-#	c #787E81",
";#	c #B6B7B8",
">#	c #101417",
",#	c #1D1F22",
"'#	c #3B4144",
")#	c #24292D",
"!#	c #1F2428",
"~#	c #212529",
"{#	c #1E2327",
"]#	c #3F454A",
"^#	c #666D72",
"/#	c #646B71",
"(#	c #495157",
"_#	c #444D52",
":#	c #434C52",
"<#	c #444C52",
"[#	c #4B545B",
"}#	c #3E454A",
"|#	c #010101",
"1#	c #040404",
"2#	c #807571",
"3#	c #86969C",
"4#	c #5198BD",
"5#	c #CDD4D8",
"6#	c #373A3A",
"7#	c #0F1315",
"8#	c #393D40",
"9#	c #1F2427",
"0#	c #1A1D21",
"a#	c #1C2123",
"b#	c #1E2124",
"c#	c #212427",
"d#	c #40464A",
"e#	c #4D555B",
"f#	c #3E474D",
"g#	c #3F474D",
"h#	c #3F484E",
"i#	c #40484E",
"j#	c #40474F",
"k#	c #485158",
"l#	c #323A3E",
"m#	c #2C2B2A",
"n#	c #7C8990",
"o#	c #97E0F5",
"p#	c #67CDF4",
"q#	c #41728D",
"r#	c #383634",
"s#	c #0D0F0F",
"t#	c #343739",
"u#	c #14171A",
"v#	c #181B1D",
"w#	c #181C1E",
"x#	c #191D1F",
"y#	c #1A1E20",
"z#	c #1B1E21",
"A#	c #292C30",
"B#	c #171B1E",
"C#	c #3A4043",
"D#	c #363D43",
"E#	c #3C444A",
"F#	c #3D454C",
"G#	c #3C444B",
"H#	c #3C454B",
"I#	c #3D454B",
"J#	c #3D4146",
"K#	c #3F4A54",
"L#	c #277EAD",
"M#	c #5AC7F4",
"N#	c #8FE7FF",
"O#	c #1B3B49",
"P#	c #010000",
"Q#	c #0F1011",
"R#	c #2E3232",
"S#	c #191C1D",
"T#	c #0F1113",
"U#	c #121518",
"V#	c #141618",
"W#	c #151819",
"X#	c #15181B",
"Y#	c #131619",
"Z#	c #25292B",
"`#	c #2A2E30",
" $	c #2C3032",
".$	c #23272A",
"+$	c #272D32",
"@$	c #30363C",
"#$	c #363E43",
"$$	c #343C40",
"%$	c #31383C",
"&$	c #2E3539",
"*$	c #2D3338",
"=$	c #2B2F32",
"-$	c #1F3846",
";$	c #226488",
">$	c #3F6A80",
",$	c #141211",
"'$	c #010102",
")$	c #060708",
"!$	c #141616",
"~$	c #0B0D0F",
"{$	c #0E1113",
"]$	c #101214",
"^$	c #111316",
"/$	c #0F1214",
"($	c #1B1D1F",
"_$	c #2C2F32",
":$	c #26282B",
"<$	c #232729",
"[$	c #1C1F22",
"}$	c #1E2326",
"|$	c #212629",
"1$	c #282E32",
"2$	c #2B2C2E",
"3$	c #232427",
"4$	c #3C3D3F",
"5$	c #1D1E1E",
"6$	c #020304",
"7$	c #0A0B0B",
"8$	c #090B0B",
"9$	c #090B0D",
"0$	c #0B0C0D",
"a$	c #0B0E0F",
"b$	c #0D0F10",
"c$	c #0C0E10",
"d$	c #111315",
"e$	c #191B1D",
"f$	c #0E1112",
"g$	c #151719",
"h$	c #111415",
"i$	c #121315",
"j$	c #121416",
"k$	c #121517",
"l$	c #16171B",
"m$	c #191B1F",
"n$	c #1B1F20",
"o$	c #1E2225",
"p$	c #202529",
"q$	c #212426",
"r$	c #373B3D",
"s$	c #222426",
"t$	c #070708",
"u$	c #070808",
"v$	c #070809",
"w$	c #070909",
"x$	c #080A0B",
"y$	c #0A0B0C",
"z$	c #0A0C0D",
"A$	c #0C0E0E",
"B$	c #0E0F10",
"C$	c #0E1011",
"D$	c #0F1213",
"E$	c #111416",
"F$	c #121417",
"G$	c #131618",
"H$	c #1C2023",
"I$	c #282B2C",
"J$	c #020202",
"K$	c #050606",
"L$	c #050607",
"M$	c #050707",
"N$	c #07090A",
"O$	c #090B0C",
"P$	c #0B0C0E",
"Q$	c #0B0D0E",
"R$	c #0C0E0F",
"S$	c #0E1012",
"T$	c #111314",
"U$	c #2B2D2E",
"V$	c #040504",
"W$	c #040505",
"X$	c #040506",
"Y$	c #050506",
"Z$	c #08090A",
"`$	c #090A0B",
" %	c #0C0F10",
".%	c #0D0F11",
"+%	c #28292A",
"@%	c #020203",
"#%	c #030303",
"$%	c #030404",
"%%	c #030405",
"&%	c #060607",
"*%	c #060808",
"=%	c #080A0A",
"-%	c #262728",
";%	c #010202",
">%	c #0F1010",
",%	c #131313",
"                                                                ",
"                                      .                         ",
"              + @ #           $ % & * = - ; >                   ",
"            , ' ) ! ~ { ] ^ / ( _ : _ < [   }                   ",
"            | 1 2 3 4 5 6 7 8 9 0 0 a b c d e f g h             ",
"            i j k l m n 8 0 0 o p q r s t u v w x y z A B C D   ",
"          E F G H I _ J K n L M N O P Q R S T U V W X Y Z `  .  ",
"          ..+.@.#.$.%.&.*.=.-.r ;.>.>.,.'.).!.~.{.].^./.(._.:.  ",
"          <.[.}.|.y 1.2.3.4.5.6.7.8.9.6.0.A a.b.c.d.e._.f.g.h.  ",
"          i.j.k.l.m.n.o.p.q.r.s.t.u.v.w.x.y.l.z.A.B.C.D.E.F.G.  ",
"          ( H.I.J.K.L.M.N.O.P.Q.R.S.T.U.V.W.X.Y.Z.`. +.+++@+#+  ",
"  $+%+&+*+=+-+h ;+>+,+'+6 N.)+!+~+{+]+^+/+(+_+:+<+[+}+|+1+2+3+  ",
"  4+5+6+7+8+9+0+a+b+c+d+e+f+N.g+h+i+j+k+l+m+n+l.o+p+q+r+s+t+    ",
"  ;+u+v+w+x+y+z+A+B+C+D+E+F+G+N.H+I+J+K+L+M+N+O+P+Q+R+S+T+U+    ",
"  V+j.W+X+Y+Z+`+ @.@+@@@#@$@%@&@N.*@I+=@-@;@>@,@'@)@!@~@{@]@    ",
"    ^@/@(@_@++:@<@[@}@|@1@2@3@4@5@N.6@!+7@8@9@0@a@b@c@d@e@f@    ",
"    (@g@h@i@j@k@l@m@n@o@Y X p@q@r@s@N.*@P.t@u@v@w@x@y@z@A@B@    ",
"    i.C@D@E@C@x+F@G@H@I@J@K@}+}+L@M@N@N.g+O@P@Q@r R@S@T@U@V@    ",
"    W@X@~@X@^ Y@7 Z@W+`@ #.#+#@#Y ##$#%#N.&#*#P@=#-#;#>#,#      ",
"    '#!@)#$ !#~#{#]#^#/#(#x+_#:#<#:#:#[#}#|#1#2#3#4#5#6#7#      ",
"    8#9#0#R.a#b#R.c#d#^@e#N f#g#h#i#i#j#k#l#m#n#o#p#q#r#s#      ",
"    t#5.u#v#w#x#y#z#A#B#C#D#E#F#G#H#I#H#E#J#K#L#M#N#O#P#Q#      ",
"    R#S#T#U#V#W#X#Y#Z#`# $.$+$@$D##$$$%$&$*$=$-$;$>$,$'$)$      ",
"      !$~${$T#]$^$/$($_$:$<$B#z#[$}$|$)#^ 1$/ 2$3$4$5$N.6$      ",
"      7$8$9$0$a$b$c$d$e$f$g$d$h$i$j$k$l$m$n$o$p$q$r$s$N.N.      ",
"          t$u$v$w$x$y$z$A$a$B$C$D$]$d$h$E$F$G$u#u#H$I$J$        ",
"                  K$L$M$)$N$x$O$P$Q$R$b$C$S$T#]$T$T#U$V$        ",
"                          W$X$Y$)$u$Z$`$O$z$Q$R$ %.%+%1#        ",
"                                @%#%$%%%Y$&%*%w$Z$=%-%1#        ",
"                                        |#;%;%#%1#6$5$>%        ",
"                                              N.N.N.,%          ",
"                                                                "};
